<?xml version="1.0" encoding="utf-8"?>
<!-- Generator: Adobe Illustrator 26.3.1, SVG Export Plug-In . SVG Version: 6.00 Build 0)  -->
<svg version="1.1" id="Layer_1" xmlns="http://www.w3.org/2000/svg" xmlns:xlink="http://www.w3.org/1999/xlink" x="0px" y="0px"
	 viewBox="0 0 1572 381.3" style="enable-background:new 0 0 1572 381.3;" xml:space="preserve">
<style type="text/css">
	.st0{fill:url(#SVGID_1_);}
	.st1{fill:#FFFFFF;}
	.st2{fill:url(#SVGID_00000044886592508925598160000001705433107954231960_);}
	.st3{fill:url(#SVGID_00000075874390751572172960000018148589971673199805_);}
	.st4{fill:url(#SVGID_00000093855545963735393330000014151531347231719871_);}
	.st5{fill:url(#SVGID_00000121277773973392372490000005716956274090702766_);}
	.st6{fill:url(#SVGID_00000071554079033631253770000011788607609459726268_);}
	.st7{fill:url(#SVGID_00000065060996524985040650000017940248586133841552_);}
	.st8{fill:url(#SVGID_00000147187847890877377650000016011897924225809305_);}
	.st9{fill:url(#SVGID_00000178903098132596607190000002353719988578593973_);}
	.st10{fill:url(#SVGID_00000106845011945596625360000011219230991746673302_);}
</style>
<g>
	
		<linearGradient id="SVGID_1_" gradientUnits="userSpaceOnUse" x1="57.3135" y1="1087.9518" x2="546.7975" y2="1087.9518" gradientTransform="matrix(1 0 0 1 0 -898)">
		<stop  offset="0" style="stop-color:#C69FF0"/>
		<stop  offset="7.000000e-02" style="stop-color:#F699D8"/>
		<stop  offset="0.16" style="stop-color:#F9F7D0"/>
		<stop  offset="0.26" style="stop-color:#F49DD9"/>
		<stop  offset="0.42" style="stop-color:#C396F3"/>
		<stop  offset="0.67" style="stop-color:#BCD7F8"/>
		<stop  offset="0.77" style="stop-color:#AFE8FD"/>
		<stop  offset="0.88" style="stop-color:#C7A5EF"/>
		<stop  offset="1" style="stop-color:#F699D8"/>
	</linearGradient>
	<path class="st0" d="M513,108.8c-6.2-6.2-13.1-11.7-20.6-16.3c-8-5.1-16.6-9.1-25.7-11.9c-41-13.2-86-2.3-116.4,28.2l-36.9,36.9
		l32.9,32.9l36.8-36.8c26.7-26.8,70-26.9,96.9-0.3c11.1,11,18,25.5,19.8,41c0,2.5,0.2,5.1,0.2,7.6s0,5.1-0.2,7.6
		c-4.2,37.6-38.2,64.7-75.8,60.4c-15.5-1.7-29.9-8.7-40.8-19.7l-40.7-40.7l-7.6-7.8l0,0l-81.4-81.4C223,78.1,178.1,67.2,137.1,80.3
		c-17.4,5.6-33.3,15.3-46.2,28.2c-44.7,45-44.7,117.6,0,162.6c6.2,6.2,13.1,11.7,20.6,16.3c8,5.1,16.6,9.1,25.7,11.9
		c41,13.2,86,2.3,116.4-28.2l1.9-1.9l18.4,18.4v-70h-70l18.7,18.7l-1.9,1.9c-26.7,26.8-70,26.9-96.9,0.3c-11.1-11-18-25.5-19.8-41
		c0-2.5-0.2-5.1-0.2-7.8s0-5.1,0.2-7.6c4.2-37.6,38.2-64.7,75.8-60.4c15.5,1.7,29.9,8.7,40.8,19.7l40.9,40.7l7.6,7.8l0,0l81.4,81.4
		c21.6,21.6,50.8,33.7,81.3,33.7c30.5,0,59.8-12.1,81.4-33.7C558.1,226.4,557.9,153.6,513,108.8z"/>
	<path class="st1" d="M582.6,145.4h108.1v26.1l-58.9,60h62.5V262H578.2v-29l55.9-57.1h-51.5L582.6,145.4z"/>
	<path class="st1" d="M712.8,101h45.7v83.2l33.4-38.7h55l-41.8,40.9l44.3,75.8h-50.4l-23.6-46.8l-16.8,16.4V262h-45.7V101z"/>
	
		<linearGradient id="SVGID_00000120542993987676947870000013199433730295548551_" gradientUnits="userSpaceOnUse" x1="855.8322" y1="403.1745" x2="1515.4807" y2="403.1745" gradientTransform="matrix(1 0 0 -1 0 584.6907)">
		<stop  offset="0" style="stop-color:#C69FF0"/>
		<stop  offset="7.000000e-02" style="stop-color:#F699D8"/>
		<stop  offset="0.16" style="stop-color:#F9F7D0"/>
		<stop  offset="0.26" style="stop-color:#F49DD9"/>
		<stop  offset="0.42" style="stop-color:#C396F3"/>
		<stop  offset="0.67" style="stop-color:#BCD7F8"/>
		<stop  offset="0.77" style="stop-color:#AFE8FD"/>
		<stop  offset="0.88" style="stop-color:#C7A5EF"/>
		<stop  offset="1" style="stop-color:#F699D8"/>
	</linearGradient>
	<path style="fill:url(#SVGID_00000120542993987676947870000013199433730295548551_);" d="M855.8,208.8l47.3-3
		c1,7.7,3.1,13.5,6.4,17.6c5.1,6.5,12.4,9.8,22,9.8c7.1,0,12.5-1.7,16.4-5c3.6-2.8,5.7-7.1,5.8-11.6c-0.1-4.4-2.2-8.4-5.6-11.2
		c-3.6-3.3-12.1-6.4-25.4-9.4c-21.8-4.9-37.4-11.4-46.6-19.5c-9.2-7.7-14.3-19.1-14.1-31.1c0-8.4,2.5-16.5,7.2-23.5
		c5.3-7.8,12.9-13.9,21.6-17.4c9.6-4.2,22.8-6.4,39.6-6.4c20.6,0,36.3,3.8,47.1,11.5s17.2,19.8,19.3,36.5l-46.9,2.8
		c-1.3-7.3-3.9-12.5-7.8-15.8c-4-3.3-9.5-4.9-16.5-4.9c-5.8,0-10.1,1.2-13.1,3.7c-2.8,2.1-4.4,5.4-4.4,8.9c0.1,2.7,1.4,5.3,3.6,6.9
		c2.4,2.1,7.9,4.1,16.7,5.9c21.7,4.7,37.3,9.4,46.6,14.2c8.4,3.9,15.5,10.1,20.5,17.8c4.3,7.2,6.5,15.5,6.4,23.9
		c0.1,10.2-2.9,20.1-8.5,28.6c-5.8,8.8-14.2,15.7-23.9,19.8c-10.3,4.5-23.2,6.7-38.8,6.7c-27.4,0-46.4-5.3-56.9-15.8
		S857.2,225,855.8,208.8z"/>
	
		<linearGradient id="SVGID_00000173851369101165082110000002452998113861489326_" gradientUnits="userSpaceOnUse" x1="855.8746" y1="380.9749" x2="1515.5018" y2="380.9749" gradientTransform="matrix(1 0 0 -1 0 584.6907)">
		<stop  offset="0" style="stop-color:#C69FF0"/>
		<stop  offset="7.000000e-02" style="stop-color:#F699D8"/>
		<stop  offset="0.16" style="stop-color:#F9F7D0"/>
		<stop  offset="0.26" style="stop-color:#F49DD9"/>
		<stop  offset="0.42" style="stop-color:#C396F3"/>
		<stop  offset="0.67" style="stop-color:#BCD7F8"/>
		<stop  offset="0.77" style="stop-color:#AFE8FD"/>
		<stop  offset="0.88" style="stop-color:#C7A5EF"/>
		<stop  offset="1" style="stop-color:#F699D8"/>
	</linearGradient>
	<path style="fill:url(#SVGID_00000173851369101165082110000002452998113861489326_);" d="M1011,145.4h43.2l18.7,73.4l23.7-73.4
		h40.4l24.7,73.6l18.8-73.6h43l-43,116.6h-39.7l-23.6-70.2l-22.8,70.2h-40L1011,145.4z"/>
	
		<linearGradient id="SVGID_00000127014444367170629700000018283620430757814941_" gradientUnits="userSpaceOnUse" x1="855.8746" y1="380.983" x2="1515.5018" y2="380.983" gradientTransform="matrix(1 0 0 -1 0 584.6907)">
		<stop  offset="0" style="stop-color:#C69FF0"/>
		<stop  offset="7.000000e-02" style="stop-color:#F699D8"/>
		<stop  offset="0.16" style="stop-color:#F9F7D0"/>
		<stop  offset="0.26" style="stop-color:#F49DD9"/>
		<stop  offset="0.42" style="stop-color:#C396F3"/>
		<stop  offset="0.67" style="stop-color:#BCD7F8"/>
		<stop  offset="0.77" style="stop-color:#AFE8FD"/>
		<stop  offset="0.88" style="stop-color:#C7A5EF"/>
		<stop  offset="1" style="stop-color:#F699D8"/>
	</linearGradient>
	<path style="fill:url(#SVGID_00000127014444367170629700000018283620430757814941_);" d="M1274.6,183.2l-42.7-4.5
		c1.1-6.3,3.5-12.3,7-17.6c3.5-4.7,8-8.5,13.1-11.2c5.3-2.7,11.1-4.4,17-5.3c7.7-1.3,15.5-1.9,23.3-1.9c10.8-0.2,21.6,0.6,32.3,2.3
		c7.5,1.2,14.5,4.4,20.3,9.4c4.2,3.8,7.3,8.6,9,14c2.1,5.5,3.2,11.4,3.3,17.3v51.5c-0.1,4.3,0.2,8.7,1,12.9
		c1.1,4.1,2.6,8.1,4.6,11.9h-42.1c-1.3-2.2-2.4-4.5-3.3-6.9c-0.7-2.4-1.2-4.9-1.5-7.4c-5,5.1-10.9,9.2-17.5,12.1
		c-8.8,3.4-18.1,5-27.6,4.9c-13.9,0-24.5-3.2-31.7-9.7c-7-5.9-11-14.7-10.8-23.8c-0.3-8,2.5-15.8,7.8-21.9
		c5.2-5.7,14.8-9.9,28.8-12.7c16.8-3.4,27.6-5.7,32.6-7.1c5.4-1.5,10.6-3.3,15.8-5.3c0-5.5-1.1-9.4-3.4-11.5
		c-2.3-2.2-6.4-3.3-12-3.3c-7.3,0-12.7,1.2-16.5,3.5C1278.7,174.7,1276.4,178.1,1274.6,183.2z M1313.4,206.7
		c-6.2,2.1-12.6,4.2-19.2,5.8c-9.1,2.4-14.8,4.8-17.3,7.1c-4.7,4.2-5,11.5-0.8,16.2c0.3,0.3,0.5,0.5,0.8,0.8
		c3.1,2.4,6.9,3.6,10.8,3.4c4.9,0,9.7-1.2,13.9-3.6c3.8-2,7-5.1,9.1-8.8c1.9-4.3,2.9-8.9,2.7-13.6L1313.4,206.7z"/>
	
		<linearGradient id="SVGID_00000018200547617045118780000000009792619533828525_" gradientUnits="userSpaceOnUse" x1="855.8746" y1="360.0702" x2="1515.5018" y2="360.0702" gradientTransform="matrix(1 0 0 -1 0 584.6907)">
		<stop  offset="0" style="stop-color:#C69FF0"/>
		<stop  offset="7.000000e-02" style="stop-color:#F699D8"/>
		<stop  offset="0.16" style="stop-color:#F9F7D0"/>
		<stop  offset="0.26" style="stop-color:#F49DD9"/>
		<stop  offset="0.42" style="stop-color:#C396F3"/>
		<stop  offset="0.67" style="stop-color:#BCD7F8"/>
		<stop  offset="0.77" style="stop-color:#AFE8FD"/>
		<stop  offset="0.88" style="stop-color:#C7A5EF"/>
		<stop  offset="1" style="stop-color:#F699D8"/>
	</linearGradient>
	<path style="fill:url(#SVGID_00000018200547617045118780000000009792619533828525_);" d="M1386.3,306.4v-161h41.9v17.2
		c5.8-7.3,11.1-12.2,15.9-14.7c6.7-3.5,14.1-5.3,21.6-5.2c15.5,0,27.6,6,36.2,17.9s12.8,26.7,12.7,44.3c0,19.4-4.7,34.2-14,44.5
		c-8.9,10-21.8,15.6-35.2,15.3c-6.4,0.1-12.8-1.1-18.8-3.5c-5.7-2.4-10.9-5.9-15.2-10.4v55.7L1386.3,306.4z M1431.2,204.1
		c0,9.2,1.9,16.1,5.8,20.5c3.6,4.4,9,6.8,14.7,6.7c5.1,0.1,10-2.3,13.1-6.4c3.5-4.2,5.3-11.5,5.3-21.8c0-9.5-1.8-16.4-5.5-20.8
		c-3.2-4.2-8.1-6.6-13.4-6.6c-5.5-0.1-10.7,2.4-14.2,6.6C1433.1,186.8,1431.1,194,1431.2,204.1z"/>
</g>
</svg>
