<?xml version="1.0" encoding="utf-8"?>
<!-- Generator: Adobe Illustrator 26.3.1, SVG Export Plug-In . SVG Version: 6.00 Build 0)  -->
<svg version="1.1" id="Layer_1" xmlns="http://www.w3.org/2000/svg" xmlns:xlink="http://www.w3.org/1999/xlink" x="0px" y="0px"
	 viewBox="0 0 1228.7 577.4" style="enable-background:new 0 0 1228.7 577.4;" xml:space="preserve">
<style type="text/css">
	.st0{fill:url(#SVGID_1_);}
	.st1{fill:url(#SVGID_00000119109138978388915700000005157495982136084877_);}
</style>
<linearGradient id="SVGID_1_" gradientUnits="userSpaceOnUse" x1="8.445757e-06" y1="975.4992" x2="1228.7006" y2="975.4992" gradientTransform="matrix(1 0 0 1 0 -686.75)">
	<stop  offset="0" style="stop-color:#C69FF0"/>
	<stop  offset="7.000000e-02" style="stop-color:#F699D8"/>
	<stop  offset="0.16" style="stop-color:#F9F7D0"/>
	<stop  offset="0.26" style="stop-color:#F49DD9"/>
	<stop  offset="0.42" style="stop-color:#C396F3"/>
	<stop  offset="0.67" style="stop-color:#BCD7F8"/>
	<stop  offset="0.77" style="stop-color:#AFE8FD"/>
	<stop  offset="0.88" style="stop-color:#C7A5EF"/>
	<stop  offset="1" style="stop-color:#F699D8"/>
</linearGradient>
<path class="st0" d="M1144.2,84.5c-15.6-15.6-32.9-29.3-51.6-41c-20.1-12.6-41.7-22.6-64.3-29.8C925.3-19.2,812.5,8.1,736,84.5
	L643.4,177l82.5,82.5l92.5-92.5c67-67.3,175.8-67.6,243.1-0.6c27.8,27.7,45.3,64,49.6,102.9c0.3,6.4,0.4,12.9,0.4,19.4
	c0,6.5,0,12.9-0.4,19.3c-10.5,94.4-95.4,162.4-189.8,151.9c-38.9-4.3-75.2-21.8-102.9-49.5L716.2,308.2l-19.4-19.4l0,0L492.7,84.6
	C416.1,8.2,303.3-19.2,200.2,13.7C177.7,21,156.1,31,136,43.6c-18.7,11.7-36,25.5-51.6,41c-112.5,112.8-112.5,295.5,0,408.3
	c15.6,15.6,32.9,29.3,51.6,41c20.1,12.6,41.7,22.7,64.3,29.9c103,32.9,215.8,5.6,292.4-70.8l4.8-4.8l46.3,46.3V359.1H368.1
	l46.7,46.6l-4.8,4.8c-67,67.3-175.8,67.6-243.1,0.6c-27.8-27.6-45.3-63.9-49.6-102.9c0-6.5-0.4-12.9-0.4-19.4s0-12.9,0.4-19.4
	c10.6-94.4,95.6-162.3,190-151.8c38.9,4.3,75.1,21.8,102.7,49.5l102.4,102.2l19.4,19.4l0,0L736,492.8c54,54.3,127.6,84.8,204.2,84.6
	c30,0,59.7-4.6,88.3-13.7c22.6-7.2,44.2-17.2,64.3-29.8c18.7-11.7,36-25.4,51.6-41C1256.9,380,1256.8,197.3,1144.2,84.5z"/>
</svg>
